<svg width="5" height="9" viewBox="0 0 5 9" fill="none" xmlns="http://www.w3.org/2000/svg">
<path d="M4.94809 4.29056C4.94856 4.37192 4.93297 4.45257 4.90221 4.52789C4.87144 4.60321 4.82611 4.67171 4.76882 4.72948L1.05964 8.43865C0.943235 8.55506 0.785352 8.62046 0.620725 8.62046C0.456099 8.62046 0.298215 8.55506 0.181806 8.43865C0.0653977 8.32224 0 8.16436 0 7.99973C0 7.83511 0.0653977 7.67722 0.181806 7.56081L3.45824 4.29056L0.187988 1.0203C0.0867115 0.902043 0.03379 0.74992 0.0397995 0.594336C0.0458091 0.43875 0.110307 0.291162 0.220404 0.181066C0.330502 0.0709677 0.478089 0.00647069 0.633674 0.000461586C0.789259 -0.00554847 0.941382 0.0473719 1.05964 0.148649L4.76882 3.85782C4.88303 3.97297 4.94741 4.12838 4.94809 4.29056Z" fill="#042338"/>
</svg>
