<svg width="20" height="18" viewBox="0 0 20 18" fill="none" xmlns="http://www.w3.org/2000/svg">
<path d="M9.99952 17.4599C9.39925 17.4599 8.79897 17.2315 8.34202 16.7745L1.74366 10.1761C-0.581221 7.85122 -0.581221 4.0684 1.74366 1.74356C4.0105 -0.523277 7.66358 -0.579684 9.9996 1.57399C12.3358 -0.578043 15.9873 -0.520855 18.2536 1.74539C19.3798 2.87161 20 4.36899 20 5.96165C20 7.55426 19.3796 9.05172 18.2536 10.1779L11.6571 16.7745C11.2001 17.2315 10.5998 17.4599 9.99952 17.4599ZM5.95995 1.55985C4.78468 1.55985 3.67976 2.0175 2.8487 2.84856C2.01765 3.67961 1.55995 4.78457 1.55995 5.95985C1.55995 7.13512 2.01761 8.24004 2.84866 9.0711L9.44702 15.6695C9.75167 15.9741 10.2474 15.9741 10.552 15.6695L17.1486 9.07293C17.9796 8.24188 18.4373 7.13696 18.4373 5.96168C18.4373 4.78641 17.9796 3.68149 17.1485 2.85043C15.433 1.13489 12.6416 1.13489 10.926 2.85043L10.552 3.22446C10.2469 3.52965 9.75214 3.52961 9.44698 3.22446L9.07116 2.84864C8.24015 2.01754 7.13522 1.55985 5.95995 1.55985Z" fill="#042338"/>
</svg>
