<svg width="18" height="20" viewBox="0 0 18 20" fill="none" xmlns="http://www.w3.org/2000/svg">
<path d="M11.8857 5.54702C11.4499 5.54702 11.0933 5.19043 11.0933 4.75459V3.96216C11.0933 2.64672 10.0315 1.58486 8.71618 1.58486C7.40082 1.58486 6.33903 2.64672 6.33903 3.96216V4.75459C6.33903 5.19043 5.98246 5.54702 5.54665 5.54702C5.11084 5.54702 4.75427 5.19043 4.75427 4.75459V3.96216C4.75427 1.77505 6.52921 0 8.71618 0C10.9031 0 12.6781 1.77505 12.6781 3.96216V4.75459C12.6781 5.19043 12.3215 5.54702 11.8857 5.54702Z" fill="#253D4E"/>
<path d="M8.71618 11.8874C6.52921 11.8874 4.75427 10.1124 4.75427 7.92524C4.75427 7.48941 5.11084 7.13281 5.54665 7.13281C5.98246 7.13281 6.33903 7.48941 6.33903 7.92524C6.33903 9.24068 7.40082 10.3025 8.71618 10.3025C10.0315 10.3025 11.0933 9.24068 11.0933 7.92524C11.0933 7.48941 11.4499 7.13281 11.8857 7.13281C12.3215 7.13281 12.6781 7.48941 12.6781 7.92524C12.6781 10.1124 10.9031 11.8874 8.71618 11.8874Z" fill="#253D4E"/>
<path d="M12.6781 19.0172H4.75428C2.1315 19.0172 0 16.8855 0 14.2626L0.800305 6.25903C0.832 4.9753 1.88587 3.95306 3.16952 3.96098H14.2629C15.5782 3.96098 16.64 5.02284 16.64 6.33828L17.4324 14.1833C17.4641 16.8221 15.3563 18.9855 12.7256 19.0172C12.7098 19.0172 12.6939 19.0172 12.6781 19.0172ZM3.16952 5.54585C2.73371 5.54585 2.37714 5.90244 2.37714 6.33828L1.58476 14.3418C1.62438 16.0614 3.03482 17.4402 4.75428 17.4323H12.6781C14.4293 17.4323 15.8476 16.0139 15.8476 14.2626L15.0552 6.41752C15.0869 5.96584 14.7383 5.57754 14.2866 5.54585C14.2866 5.54585 14.2787 5.54585 14.2629 5.54585H3.16952Z" fill="#253D4E"/>
</svg>
