<svg width="10" height="10" viewBox="0 0 10 10" fill="none" xmlns="http://www.w3.org/2000/svg">
<g clip-path="url(#clip0_1_15482)">
<path d="M9.72065 4.74514C9.97407 4.49824 10.0635 4.13588 9.95412 3.79963C9.84494 3.46324 9.55961 3.22268 9.20948 3.1718L7.04762 2.85768C6.93787 2.84166 6.84305 2.77277 6.79399 2.6734L5.82717 0.714258C5.67063 0.397168 5.35365 0.200195 4.99998 0.200195C4.64631 0.200195 4.32934 0.397168 4.1728 0.714258L3.20598 2.67338C3.15692 2.77279 3.06209 2.84168 2.95252 2.85766L0.79053 3.17178C0.440374 3.22268 0.155042 3.46324 0.0459207 3.79945C-0.0635129 4.13588 0.0259207 4.49826 0.279261 4.74508L1.84367 6.27016C1.92303 6.34748 1.95924 6.45887 1.94055 6.56799L1.57117 8.72139C1.51149 9.07002 1.65209 9.41568 1.93813 9.62346C2.22422 9.83133 2.59649 9.85826 2.90969 9.69375L4.84332 8.67711C4.94141 8.62557 5.05854 8.62558 5.15653 8.67705L7.09032 9.69375C7.40352 9.85828 7.77578 9.83133 8.06188 9.62346C8.34789 9.41566 8.48852 9.07002 8.42883 8.72139L8.05944 6.56809C8.04075 6.45887 8.07694 6.34748 8.15635 6.2701L9.72065 4.74514Z" fill="#042338"/>
</g>
<defs>
<clipPath id="clip0_1_15482">
<rect width="10" height="10" fill="white"/>
</clipPath>
</defs>
</svg>
