<svg width="20" height="20" viewBox="0 0 20 20" fill="none" xmlns="http://www.w3.org/2000/svg">
<path d="M16.1157 7.63473C16.0702 7.53731 15.9977 7.45497 15.9069 7.39743C15.8161 7.33989 15.7107 7.30957 15.6032 7.31007H15.6005L10.7224 7.3369L10.6929 7.3047L11.3637 2.64665C11.3816 2.52389 11.3585 2.39864 11.2978 2.29042C11.2371 2.18219 11.1424 2.09707 11.0283 2.0483C10.9563 2.01695 10.8787 2.00052 10.8002 2C10.7161 2.00025 10.6331 2.01944 10.5574 2.05613C10.4817 2.09282 10.4152 2.14609 10.3629 2.21197L4.12441 9.99327C4.05776 10.0762 4.01592 10.1763 4.00372 10.282C3.99152 10.3877 4.00946 10.4947 4.05547 10.5907C4.10148 10.6866 4.17368 10.7676 4.26374 10.8243C4.3538 10.8809 4.45805 10.911 4.56446 10.9109H8.96223L8.98906 10.9458L7.86211 16.3444C7.83608 16.4679 7.85215 16.5966 7.90776 16.7099C7.96337 16.8232 8.05532 16.9146 8.16895 16.9696C8.28257 17.0245 8.41132 17.0399 8.53468 17.0131C8.65803 16.9864 8.76887 16.9191 8.84953 16.822L16.0378 8.23845C16.1073 8.15587 16.1516 8.05505 16.1654 7.94802C16.1792 7.84098 16.1619 7.73224 16.1157 7.63473Z" fill="#042338"/>
</svg>
