<svg width="18" height="20" viewBox="0 0 18 20" fill="none" xmlns="http://www.w3.org/2000/svg">
<path d="M11.8853 5.54714C11.4495 5.54714 11.093 5.19055 11.093 4.75471V3.96228C11.093 2.64684 10.0312 1.58499 8.71581 1.58499C7.40046 1.58499 6.33867 2.64684 6.33867 3.96228V4.75471C6.33867 5.19055 5.9821 5.54714 5.54629 5.54714C5.11048 5.54714 4.75391 5.19055 4.75391 4.75471V3.96228C4.75391 1.77517 6.52884 0.00012207 8.71581 0.00012207C10.9028 0.00012207 12.6777 1.77517 12.6777 3.96228V4.75471C12.6777 5.19055 12.3211 5.54714 11.8853 5.54714Z" fill="#253D4E"/>
<path d="M8.71581 11.8875C6.52884 11.8875 4.75391 10.1125 4.75391 7.92537C4.75391 7.48953 5.11048 7.13293 5.54629 7.13293C5.9821 7.13293 6.33867 7.48953 6.33867 7.92537C6.33867 9.2408 7.40046 10.3027 8.71581 10.3027C10.0312 10.3027 11.093 9.2408 11.093 7.92537C11.093 7.48953 11.4495 7.13293 11.8853 7.13293C12.3211 7.13293 12.6777 7.48953 12.6777 7.92537C12.6777 10.1125 10.9028 11.8875 8.71581 11.8875Z" fill="#253D4E"/>
<path d="M12.6781 19.0173H4.75428C2.1315 19.0173 0 16.8857 0 14.2627L0.800305 6.25916C0.832 4.97542 1.88587 3.95318 3.16952 3.96111H14.2629C15.5782 3.96111 16.64 5.02296 16.64 6.3384L17.4324 14.1835C17.4641 16.8223 15.3563 18.9856 12.7256 19.0173C12.7098 19.0173 12.6939 19.0173 12.6781 19.0173ZM3.16952 5.54597C2.73371 5.54597 2.37714 5.90256 2.37714 6.3384L1.58476 14.342C1.62438 16.0615 3.03482 17.4404 4.75428 17.4324H12.6781C14.4293 17.4324 15.8476 16.014 15.8476 14.2627L15.0552 6.41764C15.0869 5.96596 14.7383 5.57767 14.2866 5.54597C14.2866 5.54597 14.2787 5.54597 14.2629 5.54597H3.16952Z" fill="#253D4E"/>
</svg>
