<svg width="21" height="20" viewBox="0 0 21 20" fill="none" xmlns="http://www.w3.org/2000/svg">
<path d="M16.7578 4.22474C15.0478 2.51474 12.2878 2.44474 10.4978 4.03474C8.70783 2.44474 5.95783 2.50474 4.23783 4.22474C2.45783 6.00474 2.45783 8.90474 4.23783 10.6947L9.18783 15.6347C9.54783 16.0047 10.0278 16.1847 10.4978 16.1847C10.9778 16.1847 11.4478 16.0047 11.8178 15.6347L14.4478 13.0047C14.3778 12.5047 14.1278 12.0647 13.7778 11.7347L10.8478 14.6647C10.6578 14.8547 10.3478 14.8547 10.1578 14.6647L5.20783 9.72474C4.59783 9.11474 4.26783 8.31474 4.26783 7.45474C4.26783 6.60474 4.59783 5.79474 5.20783 5.19474C5.80783 4.59474 6.61783 4.25474 7.46783 4.25474C8.32783 4.25474 9.12783 4.59474 9.72783 5.19474L10.0178 5.47474C10.2778 5.74474 10.7178 5.74474 10.9878 5.47474L11.2678 5.19474C12.5178 3.94474 14.5478 3.94474 15.7878 5.19474C16.3978 5.80474 16.7278 6.60474 16.7278 7.45474C16.7278 8.19474 16.4878 8.88474 16.0278 9.45474C16.3678 9.76474 16.6578 10.1347 16.8978 10.5347C17.6778 9.69474 18.0978 8.61474 18.0978 7.45474C18.0978 6.23474 17.6278 5.08474 16.7578 4.22474Z" fill="#253D4E"/>
<path d="M15.4478 10.0634C14.6378 9.27344 13.5278 8.78344 12.2978 8.78344H10.3378L11.3178 7.80344C11.5978 7.51344 11.5978 7.04344 11.3178 6.75344C11.1678 6.60344 10.9678 6.52344 10.7678 6.52344C10.5778 6.52344 10.3978 6.59344 10.2478 6.73344L7.97781 9.00344C7.90781 9.07344 7.85781 9.15344 7.82781 9.23344C7.81781 9.25344 7.80781 9.28344 7.79781 9.30344C7.77781 9.36344 7.76781 9.43344 7.75781 9.49344V9.57344C7.75781 9.65344 7.77781 9.73344 7.80781 9.81344V9.83344C7.84781 9.91344 7.89781 9.99344 7.95781 10.0534C7.96781 10.0634 7.96781 10.0734 7.97781 10.0734L10.2478 12.3534L10.2678 12.3734C10.4078 12.5134 10.5978 12.5834 10.7878 12.5834C10.9878 12.5834 11.1878 12.5034 11.3378 12.3534C11.6278 12.0534 11.6178 11.5734 11.3178 11.2834L10.3378 10.3034H12.2978C13.1078 10.3034 13.8378 10.6234 14.3778 11.1334C14.7178 11.4534 14.9878 11.8534 15.1478 12.3034C15.2678 12.6234 15.3278 12.9734 15.3278 13.3334V16.3634C15.3278 16.7734 15.6678 17.1134 16.0878 17.1134C16.4978 17.1134 16.8378 16.7734 16.8378 16.3634V13.3334C16.8378 12.5434 16.6378 11.8134 16.2878 11.1634C16.0678 10.7534 15.7878 10.3834 15.4478 10.0634Z" fill="#253D4E"/>
</svg>
