<svg width="949" height="610" viewBox="0 0 949 610" fill="none" xmlns="http://www.w3.org/2000/svg">
<mask id="path-1-inside-1_1_15582" fill="white">
<path d="M949 528C949 539.046 940.046 548 929 548H914C902.954 548 894 556.954 894 568V590C894 601.046 885.046 610 874 610H20C8.95429 610 0 601.046 0 590V20C0 8.95432 8.9543 0 20 0H929C940.046 0 949 8.9543 949 20V528Z"/>
</mask>
<path d="M949 528C949 539.046 940.046 548 929 548H914C902.954 548 894 556.954 894 568V590C894 601.046 885.046 610 874 610H20C8.95429 610 0 601.046 0 590V20C0 8.95432 8.9543 0 20 0H929C940.046 0 949 8.9543 949 20V528Z" fill="#F6F6F6"/>
<path d="M929 548V547H914V548V549H929V548ZM894 568H893V590H894H895V568H894ZM874 610V609H20V610V611H874V610ZM0 590H1V20H0H-1V590H0ZM20 0V1H929V0V-1H20V0ZM949 20H948V528H949H950V20H949ZM929 0V1C939.493 1 948 9.50659 948 20H949H950C950 8.40202 940.598 -1 929 -1V0ZM0 20H1C1 9.5066 9.50659 1 20 1V0V-1C8.40202 -1 -1 8.40203 -1 20H0ZM20 610V609C9.50658 609 1 600.493 1 590H0H-1C-1 601.598 8.40201 611 20 611V610ZM894 590H893C893 600.493 884.493 609 874 609V610V611C885.598 611 895 601.598 895 590H894ZM914 548V547C902.402 547 893 556.402 893 568H894H895C895 557.507 903.507 549 914 549V548ZM929 548V549C940.598 549 950 539.598 950 528H949H948C948 538.493 939.493 547 929 547V548Z" fill="black" fill-opacity="0.12" mask="url(#path-1-inside-1_1_15582)"/>
</svg>
