<svg width="20" height="20" viewBox="0 0 20 20" fill="none" xmlns="http://www.w3.org/2000/svg">
<g clip-path="url(#clip0_1_10601)">
<path d="M10.0015 18.7187C9.4012 18.7187 8.80093 18.4902 8.34397 18.0332L1.74562 11.4349C-0.579268 9.11001 -0.579268 5.32719 1.74562 3.00235C4.01245 0.735512 7.66554 0.679106 10.0016 2.83278C12.3377 0.680746 15.9892 0.737934 18.2555 3.00418C19.3817 4.13039 20.0019 5.62778 20.0019 7.22043C20.0019 8.81305 19.3816 10.3105 18.2555 11.4367L11.659 18.0332C11.202 18.4902 10.6017 18.7187 10.0015 18.7187ZM5.9619 2.81864C4.78663 2.81864 3.68171 3.27629 2.85065 4.10735C2.0196 4.9384 1.5619 6.04336 1.5619 7.21864C1.5619 8.39391 2.01956 9.49883 2.85062 10.3299L9.44897 16.9282C9.75362 17.2329 10.2493 17.2329 10.554 16.9282L17.1505 10.3317C17.9816 9.50067 18.4392 8.39575 18.4392 7.22047C18.4392 6.0452 17.9816 4.94028 17.1505 4.10922C15.4349 2.39368 12.6436 2.39368 10.928 4.10922L10.554 4.48325C10.2488 4.78844 9.75409 4.7884 9.44893 4.48325L9.07311 4.10743C8.2421 3.27633 7.13718 2.81864 5.9619 2.81864Z" fill="#042338"/>
</g>
<defs>
<clipPath id="clip0_1_10601">
<rect width="20" height="20" fill="white"/>
</clipPath>
</defs>
</svg>
