<svg width="20" height="20" viewBox="0 0 20 20" fill="none" xmlns="http://www.w3.org/2000/svg">
<path d="M9.99993 6.66586C10.1096 6.66523 10.2183 6.68625 10.3198 6.72772C10.4214 6.76919 10.5137 6.83029 10.5916 6.90753L15.5916 11.9075C15.7485 12.0644 15.8367 12.2773 15.8367 12.4992C15.8367 12.7211 15.7485 12.9339 15.5916 13.0909C15.4347 13.2478 15.2218 13.3359 14.9999 13.3359C14.778 13.3359 14.5652 13.2478 14.4083 13.0909L9.99993 8.67419L5.59159 13.0825C5.43218 13.219 5.22711 13.2904 5.01738 13.2823C4.80765 13.2742 4.6087 13.1872 4.46029 13.0388C4.31188 12.8904 4.22494 12.6915 4.21684 12.4817C4.20873 12.272 4.28007 12.0669 4.41659 11.9075L9.41659 6.90753C9.57181 6.75357 9.78131 6.66678 9.99993 6.66586Z" fill="#042338"/>
</svg>
