<svg width="15" height="15" viewBox="0 0 15 15" fill="none" xmlns="http://www.w3.org/2000/svg">
<path fill-rule="evenodd" clip-rule="evenodd" d="M5.91761 2.74361C6.2515 2.22002 6.83569 1.875 7.5 1.875C8.16432 1.875 8.7485 2.22004 9.08244 2.74364C9.22357 2.96499 9.488 3.07453 9.74438 3.01783C10.3507 2.88371 11.0078 3.05281 11.4775 3.52255C11.9472 3.9923 12.1163 4.64931 11.9822 5.25567C11.9255 5.512 12.0351 5.77643 12.2564 5.9176C12.78 6.2515 13.125 6.83569 13.125 7.5C13.125 8.16432 12.78 8.7485 12.2564 9.08238C12.0351 9.22357 11.9255 9.488 11.9822 9.74432C12.1163 10.3507 11.9473 11.0077 11.4775 11.4774C11.0078 11.9472 10.3507 12.1163 9.74438 11.9822C9.488 11.9255 9.22357 12.035 9.08244 12.2564C8.7485 12.7799 8.16432 13.125 7.5 13.125C6.83569 13.125 6.2515 12.78 5.91761 12.2564C5.77644 12.0351 5.512 11.9255 5.25567 11.9823C4.64931 12.1163 3.99228 11.9473 3.52252 11.4775C3.05277 11.0078 2.88368 10.3507 3.01781 9.74438C3.07451 9.488 2.96497 9.22357 2.74363 9.08238C2.22003 8.7485 1.875 8.16432 1.875 7.5C1.875 6.83569 2.22003 6.2515 2.74363 5.9176C2.96497 5.77643 3.07451 5.51199 3.01781 5.25565C2.88369 4.6493 3.05278 3.99226 3.52253 3.5225C3.99228 3.05275 4.64931 2.88366 5.25567 3.01778C5.512 3.07448 5.77645 2.96495 5.91761 2.74361ZM7.5 0.625C6.54163 0.625 5.68443 1.05675 5.11186 1.73444C4.22776 1.6601 3.31632 1.96094 2.63864 2.63862C1.96097 3.31629 1.66013 4.22775 1.73447 5.11183C1.05676 5.68441 0.625 6.54163 0.625 7.5C0.625 8.45838 1.05676 9.31557 1.73446 9.88819C1.66012 10.7723 1.96096 11.6837 2.63864 12.3614C3.31631 13.0391 4.22776 13.3399 5.11186 13.2656C5.68444 13.9433 6.54163 14.375 7.5 14.375C8.45838 14.375 9.31563 13.9433 9.88819 13.2655C10.7723 13.3399 11.6837 13.039 12.3614 12.3613C13.039 11.6837 13.3399 10.7723 13.2656 9.88819C13.9433 9.31557 14.375 8.45838 14.375 7.5C14.375 6.54163 13.9433 5.68441 13.2656 5.11184C13.3399 4.22776 13.039 3.31633 12.3614 2.63867C11.6837 1.961 10.7723 1.66016 9.88819 1.73449C9.31563 1.05677 8.45838 0.625 7.5 0.625ZM10.4419 6.69194C10.686 6.44788 10.686 6.05214 10.4419 5.80806C10.1979 5.56398 9.80213 5.56398 9.55807 5.80806L6.875 8.49107L5.44194 7.05806C5.19786 6.814 4.80213 6.814 4.55806 7.05806C4.31398 7.30213 4.31398 7.69788 4.55806 7.94194L6.43306 9.81694C6.67713 10.061 7.07288 10.061 7.31694 9.81694L10.4419 6.69194Z" fill="#042338"/>
</svg>
