<svg width="29" height="29" viewBox="0 0 29 29" fill="none" xmlns="http://www.w3.org/2000/svg">
<path d="M19.2235 19.2236C18.842 19.605 18.2239 19.605 17.8424 19.2236L9.05992 10.4411C8.67847 10.0596 8.67847 9.44145 9.05992 9.06C9.44137 8.67855 10.0595 8.67855 10.441 9.06L19.2235 17.8425C19.6049 18.2239 19.6049 18.8421 19.2235 19.2236Z" fill="#042338"/>
<path d="M19.2235 10.4418L10.441 19.2243C10.0595 19.6057 9.44137 19.6057 9.05992 19.2243C8.67847 18.8428 8.67847 18.2247 9.05992 17.8432L17.8424 9.06072C18.2239 8.67926 18.842 8.67926 19.2235 9.06072C19.6049 9.44217 19.6049 10.0603 19.2235 10.4418Z" fill="#042338"/>
</svg>
