<svg width="28" height="29" viewBox="0 0 28 29" fill="none" xmlns="http://www.w3.org/2000/svg">
<path d="M21.9697 9.66667V0.483337H5.71212V9.66667C5.71212 14.1485 9.35909 17.7955 13.8409 17.7955C18.3227 17.7955 21.9697 14.1485 21.9697 9.66667Z" fill="#FFDB6D"/>
<path d="M16.389 22.2767H11.292C11.7753 20.7388 12.1268 19.201 12.3026 17.6631C12.7859 17.751 13.3132 17.7949 13.8405 17.7949C14.3677 17.7949 14.8511 17.751 15.3784 17.6631C15.5981 19.201 15.9056 20.7388 16.389 22.2767Z" fill="#E5BD42"/>
<path d="M20.8273 23.7712V27.7258H6.85455V23.7712C6.85455 22.9364 7.51364 22.2773 8.34848 22.2773H19.2894C20.1242 22.2773 20.8273 22.9364 20.8273 23.7712Z" fill="#BCC4CA"/>
<path d="M13.8413 4.4375L14.9837 6.76629L17.5761 7.1178L15.7307 8.96326L16.1701 11.5117L13.8413 10.3254L11.5125 11.5117L11.9519 8.96326L10.1064 7.1178L12.6989 6.76629L13.8413 4.4375Z" fill="#E5BD42"/>
<path d="M27.2424 27.3303H7.29394V23.7712C7.29394 23.2 7.77727 22.7167 8.34849 22.7167H19.2894C19.8606 22.7167 20.3439 23.2 20.3439 23.7712V25.7924C20.3439 26.0121 20.5197 26.2318 20.7833 26.2318C21.047 26.2318 21.2227 26.0561 21.2227 25.7924V23.7712C21.2227 22.7167 20.3439 21.8379 19.2894 21.8379H16.697C16.4333 21.003 16.2576 20.2121 16.0818 19.3773C16.0379 19.1576 15.8182 18.9818 15.5985 19.0258C15.3788 19.0697 15.203 19.2894 15.247 19.5091C15.3788 20.2561 15.5985 21.003 15.8182 21.7939H11.8636C12.2152 20.5636 12.4788 19.3333 12.6985 18.103C13.0939 18.147 13.4455 18.1909 13.8409 18.1909C18.2349 18.1909 21.8818 14.8515 22.3652 10.5894C25.3091 10.4136 27.6379 7.95303 27.6379 4.96515V0.483333C27.6379 0.263636 27.4621 0.0439394 27.1985 0.0439394H21.9697C21.75 0.0439394 21.5303 0.219697 21.5303 0.483333V9.66667C21.5303 13.9288 18.0591 17.3561 13.8409 17.3561C9.57879 17.3561 6.10758 13.8848 6.10758 9.62273V2.6803V0.878788H8.65606H19.2894C19.5091 0.878788 19.7288 0.70303 19.7288 0.439394C19.7288 0.175758 19.553 0 19.2894 0H8.7H5.71212H0.483333C0.263636 0 0.0439394 0.175758 0.0439394 0.439394V4.96515C0.0439394 7.95303 2.41667 10.4136 5.31667 10.5894C5.71212 14.1924 8.34849 17.1364 11.8197 17.9712C11.6439 19.2455 11.3364 20.5636 10.9409 21.8379H8.34849C7.29394 21.8379 6.41515 22.7167 6.41515 23.7712V27.3303H0.439394C0.219697 27.3303 0 27.5061 0 27.7697C0 27.9894 0.175758 28.2091 0.439394 28.2091H6.85455H27.1985C27.4182 28.2091 27.6379 28.0333 27.6379 27.7697C27.6379 27.5061 27.4621 27.3303 27.2424 27.3303ZM26.7591 0.878788V4.96515C26.7591 7.4697 24.8258 9.49091 22.4091 9.71061V9.62273V5.09697V0.878788H26.7591ZM5.27273 9.75455C2.85606 9.53485 0.922727 7.4697 0.922727 5.00909V0.878788H5.27273V2.6803V9.66667V9.75455Z" fill="#484C55"/>
<path d="M17.9712 6.98638C17.9273 6.81062 17.7955 6.72274 17.6197 6.6788L15.247 6.32729L14.1924 4.17425C14.0606 3.86668 13.5773 3.86668 13.4455 4.17425L12.3909 6.32729L10.0182 6.6788C9.84242 6.72274 9.71061 6.81062 9.66667 6.98638C9.62273 7.16213 9.66667 7.29395 9.75455 7.42577L11.4682 9.09547L11.1167 11.4682C11.0727 11.644 11.1606 11.7758 11.2924 11.8636C11.4242 11.9515 11.6 11.9515 11.7318 11.9076L13.8409 10.8091L15.95 11.9076C15.9939 11.9515 16.0818 11.9515 16.1697 11.9515C16.2576 11.9515 16.3455 11.9076 16.4333 11.8636C16.5652 11.7758 16.6091 11.6 16.6091 11.4682L16.2136 9.09547L17.9273 7.42577C18.0152 7.33789 18.0152 7.16213 17.9712 6.98638ZM15.4227 8.65607C15.3348 8.74395 15.2909 8.87577 15.2909 9.05153L15.5985 10.7652L14.0606 9.93032C14.0167 9.88638 13.9288 9.88638 13.8409 9.88638C13.753 9.88638 13.7091 9.88638 13.6212 9.93032L12.0833 10.7652L12.3909 9.05153C12.4348 8.91971 12.347 8.78789 12.2591 8.65607L11.0288 7.42577L12.7424 7.16213C12.8742 7.16213 13.0061 7.07426 13.05 6.94244L13.8409 5.36062L14.6318 6.94244C14.6758 7.07426 14.8076 7.16213 14.9394 7.16213L16.653 7.42577L15.4227 8.65607Z" fill="#484C55"/>
</svg>
