<svg width="20" height="20" viewBox="0 0 20 20" fill="none" xmlns="http://www.w3.org/2000/svg">
<path d="M18.6027 11.2712C18.0567 11.9292 17.2018 12.3379 16.3717 12.3379H14.1756C14.6698 13.1255 15.0418 13.918 15.2685 14.6727C15.6144 15.8244 15.6023 16.8283 15.2334 17.5759C14.818 18.418 13.9761 18.8818 12.863 18.8818C12.6098 18.8818 12.3817 18.7291 12.2852 18.495C11.4185 16.3928 9.15777 13.3713 7.02781 11.3809C6.81047 12.1359 6.11395 12.6899 5.29 12.6899H2.61422C1.61699 12.6899 0.805664 11.8786 0.805664 10.8814V2.92648C0.805664 1.92926 1.61699 1.11793 2.61422 1.11793H5.29C5.90004 1.11793 6.44012 1.42188 6.76785 1.88594C7.26363 1.40895 7.9209 1.11793 8.64109 1.11793H15.3786C16.1235 1.11793 16.7868 1.43508 17.2968 2.03508C17.7173 2.52973 18.0159 3.19797 18.1604 3.96754L19.1535 9.25766C19.2867 9.96742 19.0911 10.6825 18.6027 11.2712ZM5.84852 2.92645C5.84852 2.61848 5.59797 2.36789 5.29 2.36789H2.61422C2.30625 2.36789 2.05566 2.61848 2.05566 2.92645V10.8814C2.05566 11.1893 2.30625 11.4399 2.61422 11.4399H5.29C5.59797 11.4399 5.84852 11.1893 5.84852 10.8814V2.92645ZM17.9249 9.48828L16.9319 4.19813C16.7658 3.31332 16.2705 2.36789 15.3786 2.36789H8.64106C7.79051 2.36789 7.09856 3.13719 7.09856 4.08281V9.77582C9.45445 11.7316 12.0929 15.0905 13.2576 17.6011C13.8791 17.4959 14.0498 17.15 14.1125 17.0229C14.5181 16.2006 14.1814 14.3072 12.4837 12.0933C12.3389 11.9045 12.3139 11.6498 12.4191 11.4364C12.5244 11.2231 12.7417 11.088 12.9796 11.088H16.3717C16.8327 11.088 17.3308 10.8466 17.6407 10.473C17.8152 10.2627 18.0062 9.92109 17.9249 9.48828Z" fill="#656565"/>
</svg>
