<svg width="20" height="20" viewBox="0 0 20 20" fill="none" xmlns="http://www.w3.org/2000/svg">
<path d="M1.39734 8.72883C1.94332 8.07082 2.79816 7.66207 3.62832 7.66207H5.82437C5.33016 6.87449 4.9582 6.08195 4.73152 5.32727C4.38562 4.17562 4.39773 3.17172 4.76656 2.42406C5.18199 1.58195 6.02387 1.11816 7.13699 1.11816C7.39015 1.11816 7.61832 1.2709 7.7148 1.50496C8.58152 3.60719 10.8422 6.62867 12.9722 8.6191C13.1895 7.86414 13.8861 7.31008 14.71 7.31008H17.3858C18.383 7.31008 19.1943 8.12141 19.1943 9.11859V17.0735C19.1943 18.0707 18.383 18.8821 17.3858 18.8821H14.71C14.1 18.8821 13.5599 18.5781 13.2321 18.1141C12.7364 18.5911 12.0791 18.8821 11.3589 18.8821H4.62137C3.87652 18.8821 3.21324 18.5649 2.70316 17.9649C2.28269 17.4703 1.98406 16.802 1.83961 16.0325L0.846523 10.7423C0.71328 10.0326 0.908905 9.3175 1.39734 8.72883ZM14.1515 17.0736C14.1515 17.3815 14.402 17.6321 14.71 17.6321H17.3858C17.6937 17.6321 17.9443 17.3815 17.9443 17.0736V9.11863C17.9443 8.81066 17.6937 8.56012 17.3858 8.56012H14.71C14.402 8.56012 14.1515 8.81066 14.1515 9.11863V17.0736ZM2.07508 10.5117L3.06812 15.8019C3.23422 16.6867 3.72949 17.6321 4.62141 17.6321H11.3589C12.2095 17.6321 12.9014 16.8628 12.9014 15.9172V10.2242C10.5455 8.2684 7.90715 4.90945 6.74238 2.39891C6.12094 2.50406 5.95023 2.85004 5.88754 2.97707C5.48187 3.79937 5.81855 5.69277 7.51633 7.90672C7.66113 8.09551 7.68613 8.3502 7.58086 8.56355C7.47558 8.77691 7.25832 8.91203 7.02035 8.91203H3.62828C3.16734 8.91203 2.66922 9.1534 2.35929 9.52695C2.1848 9.73734 1.99379 10.0789 2.07508 10.5117Z" fill="#656565"/>
</svg>
