<svg width="20" height="20" viewBox="0 0 20 20" fill="none" xmlns="http://www.w3.org/2000/svg">
<path d="M13.0928 1.12495C11.2785 -0.374987 8.72149 -0.374977 6.90723 1.12495L1.52148 5.57807C0.551084 6.38039 0 7.59691 0 8.86616V15.8105C0 18.0656 1.7341 19.9999 4 19.9999H6C7.10457 19.9999 7.99995 19.1045 8 17.9999V14.748C8 13.4805 8.9521 12.5585 10 12.5585C11.0479 12.5585 12 13.4805 12 14.748V17.9999C12 19.1045 12.8955 19.9999 14 19.9999H16C18.2659 19.9999 20 18.0656 20 15.8105V8.86616C20 7.59702 19.4497 6.38039 18.4795 5.57807L13.0928 1.12495Z" fill="#FE8811"/>
</svg>
