<svg width="8" height="14" viewBox="0 0 8 14" fill="none" xmlns="http://www.w3.org/2000/svg">
<path d="M7.74333 12.5092L2.14698 7L7.74333 1.49075C7.90844 1.32623 8.00071 1.10408 8 0.872812C7.99928 0.641545 7.90564 0.419951 7.73953 0.256419C7.57341 0.0928878 7.34831 0.000706061 7.11338 4.03912e-06C6.87846 -0.000697983 6.6528 0.0901367 6.48567 0.252672L0.260463 6.38096C0.0936909 6.54514 0 6.76782 0 7C0 7.23218 0.0936909 7.45486 0.260463 7.61904L6.48567 13.7473C6.6528 13.9099 6.87846 14.0007 7.11338 14C7.34831 13.9993 7.57341 13.9071 7.73953 13.7436C7.90564 13.5801 7.99928 13.3585 8 13.1272C8.00071 12.8959 7.90844 12.6738 7.74333 12.5092Z" fill="#042338"/>
</svg>
