<svg width="42" height="39" viewBox="0 0 42 39" fill="none" xmlns="http://www.w3.org/2000/svg">
<path d="M37.4482 3.58638C32.8263 -0.997041 25.3664 -1.18467 20.5282 3.07711C15.6901 -1.18467 8.25725 -1.02384 3.60832 3.58638C-1.20277 8.35743 -1.20277 16.1305 3.60832 20.9283L16.9875 34.1693C17.9605 35.1611 19.2579 35.6435 20.5282 35.6435C21.8256 35.6435 23.096 35.1611 24.096 34.1693L31.2045 27.12C31.0154 25.7798 30.3396 24.6004 29.3936 23.7159L21.4742 31.5694C20.9607 32.0786 20.1228 32.0786 19.6093 31.5694L6.2301 18.3284C4.58135 16.6934 3.68941 14.5491 3.68941 12.244C3.68941 9.96564 4.58135 7.79455 6.2301 6.18633C7.85182 4.57811 10.0411 3.66679 12.3386 3.66679C14.663 3.66679 16.8253 4.57811 18.447 6.18633L19.2309 6.93683C19.9336 7.66053 21.1229 7.66053 21.8526 6.93683L22.6094 6.18633C25.988 2.83588 31.4748 2.83588 34.8264 6.18633C36.4751 7.82135 37.3671 9.96564 37.3671 12.244C37.3671 14.2274 36.7184 16.0769 35.4751 17.6047C36.394 18.4356 37.1779 19.4273 37.8266 20.4995C39.9348 18.248 41.07 15.3532 41.07 12.244C41.07 8.97391 39.7997 5.89149 37.4482 3.58638Z" fill="#253D4E" fill-opacity="0.6"/>
<path d="M33.9071 19.2356C31.7178 17.1181 28.7176 15.8047 25.3931 15.8047H20.0955L22.7443 13.1779C23.5011 12.4006 23.5011 11.1409 22.7443 10.3636C22.3388 9.9615 21.7983 9.74707 21.2577 9.74707C20.7441 9.74707 20.2576 9.9347 19.8522 10.3099L13.7167 16.3944C13.5275 16.582 13.3924 16.7964 13.3113 17.0109C13.2842 17.0645 13.2572 17.1449 13.2302 17.1985C13.1761 17.3593 13.1491 17.5469 13.1221 17.7077V17.9222C13.1221 18.1366 13.1761 18.351 13.2572 18.5655V18.6191C13.3653 18.8335 13.5005 19.0479 13.6626 19.2087C13.6897 19.2356 13.6897 19.2624 13.7167 19.2624L19.8522 25.3736L19.9063 25.4272C20.2847 25.8024 20.7982 25.9901 21.3117 25.9901C21.8523 25.9901 22.3929 25.7756 22.7983 25.3736C23.5822 24.5695 23.5551 23.2829 22.7443 22.5056L20.0955 19.8788H25.3931C27.5824 19.8788 29.5555 20.7366 31.015 22.1035C31.934 22.9613 32.6638 24.0334 33.0962 25.2396C33.4206 26.0973 33.5827 27.0354 33.5827 28.0003V36.1218C33.5827 37.2208 34.5017 38.1321 35.6369 38.1321C36.7451 38.1321 37.6641 37.2208 37.6641 36.1218V28.0003C37.6641 25.8829 37.1235 23.9262 36.1775 22.184C35.5829 21.085 34.8261 20.0933 33.9071 19.2356Z" fill="#253D4E" fill-opacity="0.6"/>
</svg>
