<svg width="19" height="17" viewBox="0 0 19 17" fill="none" xmlns="http://www.w3.org/2000/svg">
<path d="M1.69904 1.698C3.75567 -0.358178 7.0552 -0.428856 9.19904 1.48315C11.3431 -0.428156 14.6427 -0.356312 16.699 1.69995C17.7313 2.73224 18.2996 4.10537 18.2996 5.56519C18.2996 7.02497 17.7311 8.39814 16.699 9.43042L10.7625 15.3679C10.3318 15.7987 9.76546 16.0133 9.20001 16.0134C8.63456 16.0134 8.0683 15.7986 7.63751 15.3679L1.69904 9.42944C-0.432412 7.298 -0.432413 3.82941 1.69904 1.698ZM5.56427 1.70386C4.53304 1.70386 3.56397 2.10552 2.83478 2.83472C2.10562 3.56391 1.70392 4.53301 1.70392 5.56421C1.70402 6.59529 2.10567 7.5646 2.83478 8.2937L8.77325 14.2322C9.00829 14.4669 9.39073 14.4668 9.62579 14.2322L15.5633 8.29468C16.2923 7.56551 16.6932 6.5963 16.6932 5.56519C16.6931 4.53407 16.2925 3.56482 15.5633 2.83569C14.0584 1.33087 11.6093 1.33101 10.1043 2.83569L9.7674 3.17261C9.45369 3.4863 8.94532 3.48628 8.63165 3.17261L8.29376 2.83472C7.56467 2.10556 6.59538 1.70393 5.56427 1.70386Z" fill="#253D4E" stroke="#253D4E" stroke-width="0.2"/>
</svg>
