<svg width="20" height="20" viewBox="0 0 20 20" fill="none" xmlns="http://www.w3.org/2000/svg">
<g clip-path="url(#clip0_1_1552)">
<path d="M10.0015 18.7177C9.4012 18.7177 8.80093 18.4893 8.34397 18.0323L1.74562 11.4339C-0.579268 9.10903 -0.579268 5.32622 1.74562 3.00137C4.01245 0.734535 7.66554 0.678129 10.0016 2.8318C12.3377 0.67977 15.9892 0.736957 18.2555 3.00321C19.3817 4.12942 20.0019 5.6268 20.0019 7.21946C20.0019 8.81208 19.3816 10.3095 18.2555 11.4357L11.659 18.0323C11.202 18.4893 10.6017 18.7177 10.0015 18.7177ZM5.9619 2.81766C4.78663 2.81766 3.68171 3.27532 2.85065 4.10637C2.0196 4.93743 1.5619 6.04239 1.5619 7.21766C1.5619 8.39293 2.01956 9.49786 2.85062 10.3289L9.44897 16.9273C9.75362 17.2319 10.2493 17.2319 10.554 16.9273L17.1505 10.3307C17.9816 9.49969 18.4392 8.39477 18.4392 7.2195C18.4392 6.04422 17.9816 4.9393 17.1505 4.10825C15.4349 2.3927 12.6436 2.3927 10.928 4.10825L10.554 4.48227C10.2488 4.78747 9.75409 4.78743 9.44893 4.48227L9.07311 4.10645C8.2421 3.27536 7.13718 2.81766 5.9619 2.81766Z" fill="#042338"/>
</g>
<defs>
<clipPath id="clip0_1_1552">
<rect width="20" height="20" fill="white"/>
</clipPath>
</defs>
</svg>
