<svg width="18" height="20" viewBox="0 0 18 20" fill="none" xmlns="http://www.w3.org/2000/svg">
<path d="M15.6502 10.5821V6.95561C15.6502 5.11087 14.9174 3.34168 13.6129 2.03725C12.3085 0.732821 10.5393 0 8.69458 0C6.84984 0 5.08065 0.732821 3.77622 2.03725C2.47179 3.34168 1.73897 5.11087 1.73897 6.95561V10.5803C1.37518 10.7056 1.04562 10.914 0.77649 11.189C0.52853 11.4293 0.33188 11.7173 0.198428 12.0358C0.0649771 12.3543 -0.00250202 12.6965 7.09004e-05 13.0418C7.09004e-05 13.7335 0.274879 14.397 0.76404 14.8861C1.2532 15.3753 1.91665 15.6501 2.60842 15.6501H4.43427C4.63382 16.6328 5.16698 17.5164 5.94341 18.151C6.71984 18.7856 7.69179 19.1323 8.69458 19.1323C9.69737 19.1323 10.6693 18.7856 11.4457 18.151C12.2222 17.5164 12.7553 16.6328 12.9549 15.6501H14.7807C15.4715 15.6467 16.1329 15.3708 16.6213 14.8824C17.1098 14.3939 17.3857 13.7325 17.3891 13.0418C17.3884 12.5025 17.221 11.9766 16.9096 11.5362C16.5983 11.0958 16.1584 10.7626 15.6502 10.5821ZM8.69458 17.389C8.15528 17.3884 7.62939 17.2209 7.18903 16.9096C6.74866 16.5982 6.41539 16.1583 6.2349 15.6501H11.1543C10.9738 16.1583 10.6405 16.5982 10.2001 16.9096C9.75977 17.2209 9.23388 17.3884 8.69458 17.389ZM15.3833 13.6617C15.3048 13.7416 15.2109 13.8049 15.1074 13.8478C15.0039 13.8907 14.8928 13.9122 14.7807 13.9112H2.60842C2.37783 13.9112 2.15668 13.8196 1.99363 13.6566C1.83058 13.4935 1.73897 13.2724 1.73897 13.0418C1.73874 12.9257 1.76231 12.8108 1.80822 12.7042C1.85413 12.5975 1.92141 12.5015 2.00589 12.4218C2.08441 12.3419 2.17823 12.2786 2.28175 12.2357C2.38527 12.1929 2.49638 12.1713 2.60842 12.1723C2.83902 12.1723 3.06016 12.0807 3.22322 11.9177C3.38627 11.7546 3.47787 11.5335 3.47787 11.3029V6.95561C3.47787 6.27054 3.61281 5.59218 3.87497 4.95926C4.13714 4.32634 4.5214 3.75126 5.00581 3.26684C5.49023 2.78242 6.06531 2.39816 6.69823 2.136C7.33115 1.87384 8.00951 1.7389 8.69458 1.7389C9.37965 1.7389 10.058 1.87384 10.6909 2.136C11.3238 2.39816 11.8989 2.78242 12.3833 3.26684C12.8678 3.75126 13.252 4.32634 13.5142 4.95926C13.7764 5.59218 13.9113 6.27054 13.9113 6.95561V11.3029C13.9113 11.5335 14.0029 11.7546 14.1659 11.9177C14.329 12.0807 14.5501 12.1723 14.7807 12.1723C15.0113 12.1723 15.2325 12.2639 15.3955 12.427C15.5586 12.59 15.6502 12.8112 15.6502 13.0418C15.6504 13.1579 15.6268 13.2728 15.5809 13.3794C15.535 13.486 15.4678 13.5821 15.3833 13.6617Z" fill="#253D4E"/>
</svg>
