<svg width="20" height="17" viewBox="0 0 20 17" fill="none" xmlns="http://www.w3.org/2000/svg">
<path d="M18.5931 2.78879H17.1988V1.39444C17.1988 1.20954 17.1253 1.03221 16.9946 0.901464C16.8638 0.770718 16.6865 0.697266 16.5016 0.697266C16.3167 0.697266 16.1394 0.770718 16.0086 0.901464C15.8779 1.03221 15.8044 1.20954 15.8044 1.39444V2.78879H14.4101C14.2252 2.78879 14.0478 2.86225 13.9171 2.99299C13.7863 3.12374 13.7129 3.30107 13.7129 3.48597C13.7129 3.67087 13.7863 3.8482 13.9171 3.97895C14.0478 4.1097 14.2252 4.18315 14.4101 4.18315H15.8044V5.5775C15.8044 5.7624 15.8779 5.93973 16.0086 6.07048C16.1394 6.20122 16.3167 6.27468 16.5016 6.27468C16.6865 6.27468 16.8638 6.20122 16.9946 6.07048C17.1253 5.93973 17.1988 5.7624 17.1988 5.5775V4.18315H18.5931C18.778 4.18315 18.9554 4.1097 19.0861 3.97895C19.2169 3.8482 19.2903 3.67087 19.2903 3.48597C19.2903 3.30107 19.2169 3.12374 19.0861 2.99299C18.9554 2.86225 18.778 2.78879 18.5931 2.78879Z" fill="#FE8811"/>
<path d="M17.9662 8.36612C17.7998 8.36615 17.639 8.4257 17.5126 8.534C17.3863 8.64229 17.3029 8.7922 17.2774 8.95663L17.1017 10.0812C17.0287 10.5754 16.7797 11.0266 16.4006 11.352C16.0215 11.6773 15.5377 11.8548 15.0381 11.852H8.6659C8.16633 11.8548 7.68252 11.6773 7.30339 11.352C6.92427 11.0266 6.6753 10.5754 6.60226 10.0812L5.69593 4.18306H10.9248C11.1097 4.18306 11.287 4.10961 11.4177 3.97886C11.5485 3.84811 11.6219 3.67078 11.6219 3.48588C11.6219 3.30098 11.5485 3.12365 11.4177 2.9929C11.287 2.86216 11.1097 2.78871 10.9248 2.78871H5.42403L5.12564 1.58677C5.01295 1.13361 4.75184 0.731192 4.38392 0.443628C4.016 0.156064 3.56243 -0.000104725 3.09546 5.2689e-08H0.697177C0.512274 5.2689e-08 0.334944 0.0734525 0.204198 0.204198C0.0734525 0.334944 0 0.512274 0 0.697177C0 0.882079 0.0734525 1.05941 0.204198 1.19015C0.334944 1.3209 0.512274 1.39435 0.697177 1.39435H3.09546C3.25116 1.39447 3.40234 1.44671 3.52491 1.54274C3.64747 1.63877 3.73436 1.77306 3.77172 1.92421L5.22185 10.2903C5.29654 10.7933 5.48153 11.2735 5.76357 11.6965C6.04561 12.1196 6.41772 12.475 6.85325 12.7374C6.6022 13.0295 6.42535 13.3779 6.33772 13.7529C6.25009 14.1279 6.25426 14.5186 6.34988 14.8917C6.49643 15.4678 6.84827 15.9707 7.33934 16.3058C7.83041 16.6409 8.42692 16.7852 9.01685 16.7115C9.60678 16.6379 10.1495 16.3515 10.5432 15.906C10.9369 15.4605 11.1544 14.8866 11.1548 14.2921C11.1534 13.9296 11.07 13.5721 10.9108 13.2464H12.7932C12.5512 13.7389 12.4867 14.2999 12.6105 14.8345C12.6898 15.1964 12.8503 15.5355 13.0801 15.826C13.3098 16.1166 13.6027 16.3511 13.9365 16.5116C14.2704 16.6722 14.6364 16.7547 15.0068 16.7527C15.3772 16.7508 15.7424 16.6646 16.0745 16.5006C16.4067 16.3366 16.6971 16.0991 16.9238 15.8062C17.1506 15.5132 17.3076 15.1725 17.3831 14.8099C17.4586 14.4472 17.4505 14.0721 17.3595 13.713C17.2685 13.354 17.0969 13.0203 16.8577 12.7374C17.2914 12.4736 17.6617 12.1176 17.9424 11.6947C18.2231 11.2719 18.4074 10.7924 18.4821 10.2903L18.653 9.16787C18.668 9.06882 18.6615 8.9677 18.6339 8.87139C18.6063 8.77508 18.5583 8.68585 18.4932 8.60976C18.428 8.53368 18.3472 8.47253 18.2563 8.43049C18.1653 8.38844 18.0664 8.36649 17.9662 8.36612ZM8.71471 15.3379C8.50787 15.3379 8.30569 15.2765 8.13371 15.1616C7.96174 15.0467 7.8277 14.8834 7.74855 14.6923C7.66939 14.5012 7.64868 14.291 7.68904 14.0881C7.72939 13.8852 7.82899 13.6989 7.97524 13.5527C8.12149 13.4064 8.30783 13.3068 8.51069 13.2664C8.71355 13.2261 8.92381 13.2468 9.1149 13.326C9.30599 13.4051 9.46932 13.5391 9.58423 13.7111C9.69914 13.8831 9.76047 14.0853 9.76047 14.2921C9.76047 14.5695 9.65029 14.8355 9.45417 15.0316C9.25805 15.2277 8.99206 15.3379 8.71471 15.3379ZM14.9893 15.3379C14.7825 15.3379 14.5803 15.2765 14.4083 15.1616C14.2363 15.0467 14.1023 14.8834 14.0231 14.6923C13.944 14.5012 13.9233 14.291 13.9636 14.0881C14.004 13.8852 14.1036 13.6989 14.2498 13.5527C14.3961 13.4064 14.5824 13.3068 14.7853 13.2664C14.9881 13.2261 15.1984 13.2468 15.3895 13.326C15.5806 13.4051 15.7439 13.5391 15.8588 13.7111C15.9737 13.8831 16.0351 14.0853 16.0351 14.2921C16.0351 14.5695 15.9249 14.8355 15.7288 15.0316C15.5326 15.2277 15.2666 15.3379 14.9893 15.3379Z" fill="#FE8811"/>
</svg>
