<svg width="54" height="54" viewBox="0 0 54 54" fill="none" xmlns="http://www.w3.org/2000/svg">
<path d="M50.0109 17.871C50.0109 14.5682 47.3436 11.9159 44.0473 11.9159H40.0464C40.0464 6.44377 35.58 2 30.0769 2C24.5738 2 20.1074 6.44127 20.1074 11.9134H16.1166C12.8957 11.8884 10.2285 14.4406 10.153 17.6683L9.57422 23.4982C10.8575 23.0228 12.2415 22.7226 13.6506 22.5975L14.1287 17.8685C14.1287 16.7675 15.0346 15.8668 16.1166 15.8668H22.0474C22.0676 15.8668 22.0827 15.8793 22.1028 15.8793C22.1229 15.8793 22.138 15.8693 22.1581 15.8668H37.9981C38.0183 15.8668 38.0334 15.8793 38.0535 15.8793C38.0736 15.8793 38.0887 15.8693 38.1089 15.8668H44.0976C45.2299 15.9669 46.1106 16.9177 46.0351 18.0686L48.023 37.6853C48.023 42.064 44.4499 45.617 40.0464 45.617H30.2077C29.5787 47.0432 28.7483 48.3694 27.7418 49.5704H40.1722C46.79 49.4953 52.0994 44.0907 51.9987 37.4851L50.0109 17.871ZM24.0957 11.9134C24.0957 8.62312 26.768 5.96587 30.0769 5.96587C33.3858 5.96587 36.0581 8.62312 36.0581 11.9134H24.0957Z" fill="#253D4E" fill-opacity="0.6"/>
<path d="M15.0343 26.0518C14.4556 26.0518 13.8517 26.1018 13.2981 26.1769C11.8135 26.352 10.4295 26.8024 9.1714 27.4529C4.91889 29.5798 2 33.9835 2 39.0128C2 46.1688 7.83777 51.9988 15.0343 51.9988C17.8526 51.9988 20.4695 51.098 22.6083 49.5717C24.093 48.5208 25.3511 47.1697 26.257 45.6184C27.4396 43.6917 28.0938 41.4148 28.0938 39.0128C28.0938 31.8817 22.2309 26.0518 15.0343 26.0518ZM15.0343 32.0068C15.915 32.0068 16.6196 32.6574 16.6196 33.383C16.6196 34.1336 15.915 34.7842 15.0343 34.7842C14.1536 34.7842 13.4491 34.1336 13.4491 33.383C13.4491 32.6574 14.1536 32.0068 15.0343 32.0068ZM13.5497 37.4865C13.5497 36.936 14.1536 36.5607 15.0343 36.5607C15.8899 36.5607 16.5693 36.936 16.5693 37.4865V44.8677C16.5693 45.3181 15.8899 45.7935 15.0343 45.7935C14.1536 45.7935 13.5497 45.3181 13.5497 44.8677V37.4865Z" fill="#FE8811"/>
</svg>
