<svg width="20" height="20" viewBox="0 0 20 20" fill="none" xmlns="http://www.w3.org/2000/svg">
<path d="M17.3209 9.00688V0.666189C17.3209 0.489505 17.2507 0.320057 17.1258 0.195122C17.0009 0.0701876 16.8314 0 16.6547 0H0.666189C0.489505 0 0.320057 0.0701876 0.195122 0.195122C0.0701876 0.320057 0 0.489505 0 0.666189V15.3224C0 15.499 0.0701876 15.6685 0.195122 15.7934C0.320057 15.9184 0.489505 15.9885 0.666189 15.9885H8.34735C8.66245 16.8857 9.18642 17.6951 9.876 18.3498C10.5656 19.0045 11.401 19.4858 12.3133 19.754C13.2256 20.0222 14.1885 20.0696 15.1227 19.8922C16.0569 19.7148 16.9355 19.3178 17.686 18.7339C18.4365 18.15 19.0374 17.3959 19.439 16.534C19.8406 15.6721 20.0315 14.727 19.9958 13.7768C19.9601 12.8266 19.699 11.8985 19.2339 11.0691C18.7688 10.2397 18.1131 9.53288 17.3209 9.00688ZM15.9885 2.66476H11.9914V1.33238H15.9885V2.66476ZM6.66189 1.33238H10.659V4.91648L8.96025 4.07042C8.86726 4.02356 8.76459 3.99915 8.66046 3.99915C8.55634 3.99915 8.45366 4.02356 8.36068 4.07042L6.66189 4.91648V1.33238ZM5.32951 1.33238V2.66476H1.33238V1.33238H5.32951ZM1.33238 14.6562V3.99714H5.32951V5.99571C5.32986 6.10927 5.35923 6.22085 5.41483 6.31987C5.47043 6.41889 5.55042 6.50205 5.64721 6.56146C5.74399 6.62086 5.85436 6.65454 5.96782 6.65929C6.08128 6.66405 6.19408 6.63972 6.29549 6.58861L8.66046 5.40946L11.0254 6.58861C11.1182 6.63617 11.2209 6.66127 11.3252 6.66189C11.4499 6.66229 11.5723 6.62767 11.6783 6.56197C11.7743 6.50196 11.8534 6.41848 11.9082 6.3194C11.963 6.22033 11.9916 6.10892 11.9914 5.99571V3.99714H15.9885V8.34735C15.3479 8.1145 14.6716 7.99502 13.99 7.99427C12.3998 7.99427 10.8748 8.62596 9.75037 9.75037C8.62596 10.8748 7.99427 12.3998 7.99427 13.99C7.99411 14.2126 8.00745 14.4351 8.03424 14.6562H1.33238ZM13.99 18.6533C13.0677 18.6533 12.1661 18.3798 11.3992 17.8674C10.6323 17.355 10.0346 16.6267 9.68163 15.7746C9.32867 14.9224 9.23632 13.9848 9.41626 13.0802C9.59619 12.1756 10.0403 11.3447 10.6925 10.6925C11.3447 10.0403 12.1756 9.59619 13.0802 9.41626C13.9848 9.23632 14.9224 9.32867 15.7746 9.68163C16.6267 10.0346 17.355 10.6323 17.8674 11.3992C18.3798 12.1661 18.6533 13.0677 18.6533 13.99C18.6533 15.2268 18.162 16.4129 17.2874 17.2874C16.4129 18.162 15.2268 18.6533 13.99 18.6533Z" fill="#042338"/>
<path d="M13.517 10.8523L11.5208 12.8539C11.2619 13.1136 11.2622 13.5339 11.5215 13.7932C11.781 14.0528 12.2019 14.0528 12.4614 13.7932L13.3238 12.9308V16.6548C13.3238 17.0228 13.6221 17.321 13.99 17.321C14.3579 17.321 14.6562 17.0228 14.6562 16.6548V12.9308L15.5186 13.7932C15.7782 14.0528 16.199 14.0528 16.4586 13.7932C16.7179 13.5339 16.7182 13.1136 16.4592 12.8539L14.463 10.8523C14.4011 10.7899 14.3274 10.7403 14.2462 10.7065C14.165 10.6727 14.078 10.6553 13.99 10.6553C13.9021 10.6553 13.815 10.6727 13.7338 10.7065C13.6526 10.7403 13.579 10.7899 13.517 10.8523Z" fill="#042338"/>
<path d="M2.66479 12.6564C2.66479 12.2885 2.96306 11.9902 3.33098 11.9902H5.99574C6.36367 11.9902 6.66193 12.2885 6.66193 12.6564C6.66193 13.0244 6.36367 13.3226 5.99574 13.3226H3.33098C2.96306 13.3226 2.66479 13.0243 2.66479 12.6564Z" fill="#042338"/>
<path d="M2.66473 9.99138C2.66473 9.62346 2.963 9.3252 3.33092 9.3252H4.6633C5.03123 9.3252 5.32949 9.62346 5.32949 9.99138C5.32949 10.3593 5.03123 10.6576 4.6633 10.6576H3.33092C2.963 10.6576 2.66473 10.3593 2.66473 9.99138Z" fill="#042338"/>
</svg>
