<svg width="20" height="20" viewBox="0 0 20 20" fill="none" xmlns="http://www.w3.org/2000/svg">
<path d="M9.99996 4.08203C11.916 4.08203 13.4693 5.681 13.4693 7.65346C13.4693 9.62592 11.916 11.2249 9.99996 11.2249C8.08389 11.2249 6.53058 9.62589 6.53058 7.65346C6.53058 5.68104 8.08389 4.08203 9.99996 4.08203ZM9.99996 5.5106C8.88226 5.5106 7.95915 6.46087 7.95915 7.65346C7.95915 8.84605 8.88226 9.79632 9.99996 9.79632C11.1177 9.79632 12.0408 8.84605 12.0408 7.65346C12.0408 6.46087 11.1177 5.5106 9.99996 5.5106Z" fill="#042338"/>
<path d="M10 0C15.5229 0 20 4.47714 20 10C20 13.7206 17.9681 16.9666 14.9535 18.6889C13.5436 19.5009 11.9135 19.9747 10.1746 19.999L10 20C4.47714 20 0 15.5229 0 10C0 4.47714 4.47714 0 10 0ZM9.06572 13.6735C7.23745 13.6735 5.6137 14.8328 5.01673 16.5545L4.92443 16.8532C6.34184 17.9278 8.08783 18.5458 9.91642 18.5706L10.1417 18.5703C11.6507 18.5458 13.0649 18.1314 14.288 17.4234L15.0763 16.9008L14.988 16.6299C14.4209 14.8918 12.8152 13.7077 10.993 13.6742L9.06572 13.6735ZM10 1.42857C5.26613 1.42857 1.42857 5.26613 1.42857 10C1.42857 12.2687 2.31001 14.3316 3.74916 15.8649C4.6042 13.6917 6.70736 12.2449 9.06576 12.2449H10.9138C13.2777 12.2449 15.3851 13.6985 16.2365 15.8801C17.6841 14.3454 18.5715 12.2763 18.5715 10C18.5714 5.26613 14.7339 1.42857 10 1.42857Z" fill="#042338"/>
</svg>
