<svg width="20" height="20" viewBox="0 0 20 20" fill="none" xmlns="http://www.w3.org/2000/svg">
<path fill-rule="evenodd" clip-rule="evenodd" d="M1.8 9.89999C1.8 5.42649 5.42649 1.8 9.9 1.8C14.3735 1.8 18 5.42649 18 9.89999C18 14.3735 14.3735 18 9.9 18C5.42649 18 1.8 14.3735 1.8 9.89999ZM9.9 0C4.43238 0 0 4.43238 0 9.89999C0 15.3676 4.43238 19.8 9.9 19.8C15.3676 19.8 19.8 15.3676 19.8 9.89999C19.8 4.43238 15.3676 0 9.9 0ZM10.68 13.8609C10.68 13.3034 10.228 12.8514 9.6705 12.8514H9.6312C9.0736 12.8514 8.6217 13.3034 8.6217 13.8609C8.6217 14.4184 9.0736 14.8704 9.6312 14.8704H9.6705C10.228 14.8704 10.68 14.4184 10.68 13.8609ZM6.63938 7.20622C6.50278 7.72264 6.94923 8.16789 7.48341 8.16789H7.77609C8.1417 8.16789 8.4245 7.86615 8.5168 7.51236C8.5692 7.30259 8.6479 7.12342 8.7528 6.97483C8.8664 6.8175 9.0062 6.69514 9.1723 6.60774C9.3471 6.51159 9.5525 6.46352 9.7885 6.46352C10.1381 6.46352 10.4091 6.55966 10.6013 6.75195C10.8024 6.94424 10.9029 7.24141 10.9029 7.64347C10.9116 7.87946 10.8679 8.07609 10.7718 8.23339C10.6844 8.39079 10.5664 8.53499 10.4178 8.66609C10.2692 8.79719 10.1075 8.92829 9.9327 9.05939C9.7579 9.19049 9.5918 9.34779 9.4345 9.53139C9.2772 9.70619 9.1373 9.92029 9.015 10.1738C8.9013 10.4273 8.8314 10.7419 8.8052 11.1178C8.8052 11.4436 9.0693 11.7077 9.3952 11.7077H10.0769C10.3521 11.7077 10.5751 11.4847 10.5751 11.2095C10.6101 10.9473 10.6931 10.7288 10.8242 10.554C10.9641 10.3792 11.1214 10.2262 11.2962 10.0951C11.471 9.95529 11.6546 9.81979 11.8468 9.68869C12.0479 9.54889 12.227 9.38279 12.3844 9.19049C12.5504 8.99819 12.6859 8.76659 12.7908 8.49569C12.9044 8.22469 12.9612 7.87946 12.9612 7.45992C12.9612 7.20645 12.9044 6.9355 12.7908 6.64707C12.6859 6.3499 12.5067 6.07458 12.2533 5.82111C11.9998 5.56764 11.6633 5.35787 11.2438 5.1918C10.833 5.017 10.3173 4.92959 9.6967 4.92959C9.216 4.92959 8.779 5.01263 8.3857 5.17869C8.0011 5.33602 7.66896 5.5589 7.38927 5.84733C7.11832 6.13576 6.90418 6.47663 6.74686 6.86995C6.70565 6.97901 6.66983 7.0911 6.63938 7.20622Z" fill="#042338"/>
</svg>
