<svg width="20" height="20" viewBox="0 0 20 20" fill="none" xmlns="http://www.w3.org/2000/svg">
<path d="M14.9267 13H8.09333C7.63134 12.9998 7.18366 12.8396 6.82637 12.5467C6.46907 12.2539 6.22419 11.8463 6.13333 11.3933L4.78667 4.66667H2.66667C2.48986 4.66667 2.32029 4.59643 2.19526 4.47141C2.07024 4.34638 2 4.17681 2 4C2 3.82319 2.07024 3.65362 2.19526 3.5286C2.32029 3.40357 2.48986 3.33333 2.66667 3.33333H5.33333C5.4893 3.33019 5.64143 3.38184 5.76324 3.47929C5.88505 3.57674 5.96883 3.71382 6 3.86667L7.44 11.1333C7.47117 11.2862 7.55495 11.4233 7.67676 11.5207C7.79857 11.6182 7.9507 11.6698 8.10667 11.6667H14.9267C15.0817 11.6701 15.2331 11.6194 15.3548 11.5233C15.4764 11.4272 15.5608 11.2916 15.5933 11.14L16.6667 6.14C16.6878 6.04155 16.6864 5.93958 16.6626 5.84174C16.6387 5.74391 16.5929 5.65276 16.5288 5.57514C16.4646 5.49751 16.3837 5.43543 16.2921 5.39355C16.2006 5.35167 16.1007 5.33108 16 5.33333H15.3333C15.1565 5.33333 14.987 5.2631 14.8619 5.13807C14.7369 5.01305 14.6667 4.84348 14.6667 4.66667C14.6667 4.48986 14.7369 4.32029 14.8619 4.19526C14.987 4.07024 15.1565 4 15.3333 4H16C16.3027 3.99301 16.6031 4.05486 16.8785 4.18087C17.1538 4.30689 17.3969 4.49378 17.5895 4.72746C17.7821 4.96114 17.9191 5.2355 17.9902 5.52984C18.0613 5.82419 18.0647 6.13084 18 6.42667L16.9133 11.4267C16.8148 11.878 16.5631 12.2813 16.201 12.5681C15.8388 12.8549 15.3886 13.0075 14.9267 13Z" fill="#253D4E"/>
<path d="M8.66797 18.0001C8.27241 18.0001 7.88573 17.8828 7.55683 17.663C7.22793 17.4432 6.97159 17.1309 6.82021 16.7654C6.66884 16.4 6.62923 15.9979 6.7064 15.6099C6.78357 15.2219 6.97405 14.8656 7.25376 14.5859C7.53346 14.3062 7.88983 14.1157 8.27779 14.0385C8.66575 13.9613 9.06788 14.0009 9.43334 14.1523C9.79879 14.3037 10.1111 14.56 10.3309 14.8889C10.5507 15.2178 10.668 15.6045 10.668 16.0001C10.668 16.5305 10.4573 17.0392 10.0822 17.4143C9.70711 17.7894 9.1984 18.0001 8.66797 18.0001ZM8.66797 15.3334C8.53612 15.3334 8.40722 15.3725 8.29759 15.4458C8.18796 15.519 8.10251 15.6231 8.05205 15.7449C8.00159 15.8668 7.98839 16.0008 8.01411 16.1301C8.03984 16.2595 8.10333 16.3782 8.19657 16.4715C8.2898 16.5647 8.40859 16.6282 8.53791 16.6539C8.66723 16.6797 8.80128 16.6664 8.92309 16.616C9.04491 16.5655 9.14903 16.4801 9.22228 16.3705C9.29554 16.2608 9.33464 16.1319 9.33464 16.0001C9.33464 15.8233 9.2644 15.6537 9.13937 15.5287C9.01435 15.4036 8.84478 15.3334 8.66797 15.3334Z" fill="#253D4E"/>
<path d="M14.666 18.0002C14.2705 18.0002 13.8838 17.8829 13.5549 17.6631C13.226 17.4434 12.9696 17.131 12.8183 16.7656C12.6669 16.4001 12.6273 15.998 12.7044 15.61C12.7816 15.222 12.9721 14.8657 13.2518 14.586C13.5315 14.3063 13.8879 14.1158 14.2758 14.0386C14.6638 13.9615 15.0659 14.0011 15.4314 14.1524C15.7968 14.3038 16.1092 14.5602 16.329 14.8891C16.5487 15.218 16.666 15.6046 16.666 16.0002C16.666 16.5306 16.4553 17.0393 16.0802 17.4144C15.7052 17.7895 15.1964 18.0002 14.666 18.0002ZM14.666 15.3335C14.5342 15.3335 14.4053 15.3726 14.2956 15.4459C14.186 15.5191 14.1006 15.6233 14.0501 15.7451C13.9996 15.8669 13.9864 16.0009 14.0122 16.1303C14.0379 16.2596 14.1014 16.3784 14.1946 16.4716C14.2878 16.5648 14.4066 16.6283 14.536 16.654C14.6653 16.6798 14.7993 16.6666 14.9211 16.6161C15.043 16.5657 15.1471 16.4802 15.2203 16.3706C15.2936 16.2609 15.3327 16.132 15.3327 16.0002C15.3327 15.8234 15.2624 15.6538 15.1374 15.5288C15.0124 15.4038 14.8428 15.3335 14.666 15.3335Z" fill="#253D4E"/>
<path d="M13.3327 7.99954H9.33268C9.15587 7.99954 8.9863 7.9293 8.86128 7.80428C8.73625 7.67925 8.66602 7.50968 8.66602 7.33287C8.66602 7.15606 8.73625 6.98649 8.86128 6.86147C8.9863 6.73644 9.15587 6.66621 9.33268 6.66621H13.3327C13.5095 6.66621 13.6791 6.73644 13.8041 6.86147C13.9291 6.98649 13.9993 7.15606 13.9993 7.33287C13.9993 7.50968 13.9291 7.67925 13.8041 7.80428C13.6791 7.9293 13.5095 7.99954 13.3327 7.99954Z" fill="#253D4E"/>
<path d="M11.3327 9.99954C11.1559 9.99954 10.9863 9.9293 10.8613 9.80428C10.7363 9.67925 10.666 9.50968 10.666 9.33287V5.33287C10.666 5.15606 10.7363 4.98649 10.8613 4.86147C10.9863 4.73644 11.1559 4.66621 11.3327 4.66621C11.5095 4.66621 11.6791 4.73644 11.8041 4.86147C11.9291 4.98649 11.9993 5.15606 11.9993 5.33287V9.33287C11.9993 9.50968 11.9291 9.67925 11.8041 9.80428C11.6791 9.9293 11.5095 9.99954 11.3327 9.99954Z" fill="#253D4E"/>
</svg>
