<svg width="625" height="610" viewBox="0 0 625 610" fill="none" xmlns="http://www.w3.org/2000/svg">
<mask id="path-1-inside-1_1_10588" fill="white">
<path d="M584 0C606.644 0 625 18.3563 625 41V511C625 528.673 610.673 543 593 543H526C508.327 543 494 557.327 494 575V578C494 595.673 479.673 610 462 610H41C18.3563 610 1.09538e-06 591.644 0 569V41C1.09539e-06 18.3563 18.3563 1.08719e-07 41 0H584Z"/>
</mask>
<path d="M584 0C606.644 0 625 18.3563 625 41V511C625 528.673 610.673 543 593 543H526C508.327 543 494 557.327 494 575V578C494 595.673 479.673 610 462 610H41C18.3563 610 1.09538e-06 591.644 0 569V41C1.09539e-06 18.3563 18.3563 1.08719e-07 41 0H584Z" fill="#F6F6F6"/>
<path d="M625 41H626V41H625ZM0 569H-1V569H0ZM0 41H-1V41H0ZM41 0V-1V0ZM584 0V1C606.091 1 624 18.9086 624 41H625H626C626 17.804 607.196 -1 584 -1V0ZM625 41H624V511H625H626V41H625ZM593 543V542H526V543V544H593V543ZM494 575H493V578H494H495V575H494ZM462 610V609H41V610V611H462V610ZM41 610V609C18.9086 609 1 591.091 1 569H0H-1C-0.999999 592.196 17.804 611 41 611V610ZM0 569H1V41H0H-1V569H0ZM0 41H1C1 18.9086 18.9086 1 41 1V0V-1C17.804 -1 -0.999999 17.804 -1 41H0ZM41 0V1H584V0V-1H41V0ZM494 578H493C493 595.121 479.121 609 462 609V610V611C480.225 611 495 596.225 495 578H494ZM526 543V542C507.775 542 493 556.775 493 575H494H495C495 557.879 508.879 544 526 544V543ZM625 511H624C624 528.121 610.121 542 593 542V543V544C611.225 544 626 529.225 626 511H625Z" fill="black" fill-opacity="0.12" mask="url(#path-1-inside-1_1_10588)"/>
</svg>
