<svg width="89" height="89" viewBox="0 0 89 89" fill="none" xmlns="http://www.w3.org/2000/svg">
<path fill-rule="evenodd" clip-rule="evenodd" d="M44.5004 6C65.7599 6 83.0009 23.241 83.0009 44.5004C83.0009 65.7599 65.7599 83.0008 44.5004 83.0008C23.241 83.0008 6 65.7599 6 44.5004C6 23.241 23.241 6 44.5004 6ZM36.5053 57.0056L27.0795 47.572C25.4736 45.9652 25.4733 43.345 27.0795 41.7385C28.686 40.1324 31.3179 40.1424 32.9127 41.7385L39.5578 48.3889L56.0888 31.858C57.6953 30.2515 60.3158 30.2515 61.922 31.858C63.5285 33.4641 63.5262 36.0869 61.922 37.6912L42.4697 57.1434C40.8655 58.7476 38.2427 58.7499 36.6365 57.1434C36.5914 57.0983 36.5479 57.0524 36.5053 57.0056Z" fill="#00BA00"/>
<path d="M44.5 3C67.4162 3 86.0007 21.5839 86.001 44.5C86.001 67.4163 67.4163 86.001 44.5 86.001C21.5839 86.0007 3 67.4162 3 44.5C3.00023 21.584 21.584 3.00023 44.5 3ZM59.8008 33.9795C59.3664 33.545 58.645 33.5444 58.21 33.9795L41.6787 50.5098L39.5566 52.6328L37.4355 50.5098L30.79 43.8594C30.3628 43.4319 29.631 43.4296 29.2002 43.8604C28.7666 44.2949 28.7661 45.0156 29.2012 45.4512H29.2021L38.6279 54.8848L38.6777 54.9346L38.7246 54.9873L38.7578 55.0225L38.8428 55.0986C39.2808 55.454 39.942 55.429 40.3486 55.0225L59.8008 35.5703C60.2075 35.1636 60.2323 34.5025 59.877 34.0645L59.8008 33.9795Z" stroke="#00BA00" stroke-opacity="0.2" stroke-width="6"/>
</svg>
