<svg width="20" height="20" viewBox="0 0 20 20" fill="none" xmlns="http://www.w3.org/2000/svg">
<path d="M17.9167 15.4156C17.063 15.4156 16.3313 15.9301 16.009 16.6656H12.347C12.0028 15.6963 11.0872 14.999 10 14.999C8.91275 14.999 7.998 15.6963 7.653 16.6656H3.991C3.66875 15.9301 2.937 15.4156 2.08325 15.4156C0.9325 15.4156 0 16.3481 0 17.4999C0 18.65 0.9325 19.5826 2.08325 19.5826C2.93775 19.5826 3.6695 19.0673 3.991 18.3325H7.653C7.99725 19.3011 8.91275 19.9994 10 19.9994C11.0872 19.9994 12.0028 19.3011 12.347 18.3325H16.009C16.3305 19.0673 17.0623 19.5826 17.9167 19.5826C19.0675 19.5826 20 18.65 20 17.4999C20 16.3481 19.0675 15.4156 17.9167 15.4156ZM10 18.3325C9.53925 18.3325 9.16675 17.9597 9.16675 17.4992C9.16675 17.0384 9.53925 16.6656 10 16.6656C10.4607 16.6656 10.8333 17.0384 10.8333 17.4992C10.8333 17.9597 10.4607 18.3325 10 18.3325Z" fill="#042338"/>
<path d="M10 0C6.77975 0 4.16675 2.61017 4.16675 5.83364C4.16675 7.44325 4.81925 8.9016 5.87575 9.95817L10 13.7507L14.1252 9.95692C15.1815 8.9016 15.8342 7.44325 15.8332 5.83239C15.8332 2.61317 13.222 0 10 0ZM12.9475 8.77759L10 11.4865L7.00375 8.73133C6.26725 7.99254 5.83325 6.94597 5.83325 5.83364C5.83325 3.53624 7.70275 1.66661 10 1.66661C12.2972 1.66661 14.1667 3.53524 14.1667 5.83239C14.1675 6.94597 13.7345 7.99154 12.9475 8.77759Z" fill="#042338"/>
<path d="M10 3.33203C8.61975 3.33203 7.5 4.45161 7.5 5.8322C7.5 7.21279 8.61975 8.33237 10 8.33237C11.381 8.33237 12.5 7.21279 12.5 5.8322C12.5 4.45161 11.381 3.33203 10 3.33203ZM10 6.6655C9.53925 6.6655 9.16675 6.29248 9.16675 5.8322C9.16675 5.37192 9.53925 4.99864 10 4.99864C10.4608 4.99864 10.8333 5.37192 10.8333 5.8322C10.8333 6.29248 10.4608 6.6655 10 6.6655Z" fill="#042338"/>
</svg>
