<svg width="22" height="22" viewBox="0 0 22 22" fill="none" xmlns="http://www.w3.org/2000/svg">
<path d="M19.2218 0.916504H16.5268C15.3627 0.916504 14.666 1.61317 14.666 2.77734V5.47234C14.666 6.6365 15.3627 7.33317 16.5268 7.33317H19.2218C20.386 7.33317 21.0827 6.6365 21.0827 5.47234V2.77734C21.0827 1.61317 20.386 0.916504 19.2218 0.916504ZM19.4235 3.95067C19.3135 4.06067 19.1668 4.11567 19.0202 4.11567C18.8735 4.11567 18.7268 4.06067 18.6168 3.95067L18.4518 3.78567V5.839C18.4518 6.15984 18.1952 6.4165 17.8743 6.4165C17.5535 6.4165 17.2968 6.15984 17.2968 5.839V3.78567L17.1318 3.95067C16.9118 4.17067 16.5452 4.17067 16.3252 3.95067C16.1052 3.73067 16.1052 3.364 16.3252 3.144L17.471 1.99817C17.5168 1.95234 17.581 1.91567 17.6452 1.88817C17.6635 1.879 17.6818 1.879 17.7002 1.86984C17.746 1.8515 17.7918 1.84234 17.8468 1.84234H17.9018C17.966 1.84234 18.021 1.8515 18.0852 1.879H18.1035C18.1677 1.9065 18.2227 1.94317 18.2685 1.989C18.2777 1.99817 18.2777 1.99817 18.2868 1.99817L19.4327 3.144C19.6527 3.364 19.6527 3.73067 19.4235 3.95067Z" fill="#042338"/>
<path d="M8.25003 9.5147C9.45497 9.5147 10.4317 8.53793 10.4317 7.33303C10.4317 6.12813 9.45497 5.15137 8.25003 5.15137C7.04512 5.15137 6.06836 6.12813 6.06836 7.33303C6.06836 8.53793 7.04512 9.5147 8.25003 9.5147Z" fill="#042338"/>
<path d="M19.2222 7.33301H18.7913V11.5588L18.6722 11.458C17.9572 10.8438 16.8022 10.8438 16.0872 11.458L12.2738 14.7305C11.5588 15.3447 10.4038 15.3447 9.68884 14.7305L9.37717 14.4738C8.72634 13.9055 7.69051 13.8505 6.95717 14.3455L3.52884 16.6463C3.32717 16.133 3.20801 15.5372 3.20801 14.8405V7.15884C3.20801 4.57384 4.57384 3.20801 7.15884 3.20801H14.6663V2.77717C14.6663 2.41051 14.7305 2.09884 14.8772 1.83301H7.15884C3.82217 1.83301 1.83301 3.82217 1.83301 7.15884V14.8405C1.83301 15.8397 2.00717 16.7105 2.34634 17.4438C3.13467 19.1855 4.82134 20.1663 7.15884 20.1663H14.8405C18.1772 20.1663 20.1663 18.1772 20.1663 14.8405V7.12217C19.9005 7.26884 19.5888 7.33301 19.2222 7.33301Z" fill="#042338"/>
</svg>
