<svg width="5" height="9" viewBox="0 0 5 9" fill="none" xmlns="http://www.w3.org/2000/svg">
<path d="M4.94809 4.29046C4.94856 4.37182 4.93297 4.45247 4.90221 4.52779C4.87144 4.60311 4.82611 4.67162 4.76882 4.72938L1.05964 8.43856C0.943235 8.55496 0.785352 8.62036 0.620725 8.62036C0.456099 8.62036 0.298215 8.55496 0.181806 8.43856C0.0653977 8.32215 0 8.16426 0 7.99964C0 7.83501 0.0653977 7.67713 0.181806 7.56072L3.45824 4.29046L0.187988 1.02021C0.0867115 0.901947 0.03379 0.749825 0.0397995 0.59424C0.0458091 0.438655 0.110307 0.291067 0.220404 0.18097C0.330502 0.0708723 0.478089 0.00637532 0.633674 0.000366218C0.789259 -0.00564384 0.941382 0.0472765 1.05964 0.148554L4.76882 3.85773C4.88303 3.97287 4.94741 4.12829 4.94809 4.29046Z" fill="#FE8811"/>
</svg>
