<svg width="20" height="19" viewBox="0 0 20 19" fill="none" xmlns="http://www.w3.org/2000/svg">
<path d="M11.8351 5.54364C11.4011 5.54364 11.0467 5.18679 11.0467 4.75198V3.96031C11.0467 2.64587 9.98951 1.58432 8.68044 1.58432C7.37137 1.58432 6.31416 2.64587 6.31416 3.96031V4.75198C6.31416 5.18779 5.95877 5.54364 5.52573 5.54364C5.09269 5.54364 4.7373 5.18679 4.7373 4.75198V3.96031C4.7373 1.77424 6.5043 0 8.68144 0C10.8586 0 12.6256 1.77424 12.6256 3.96031V4.75198C12.6256 5.18779 12.2702 5.54364 11.8371 5.54364H11.8351Z" fill="#253D4E"/>
<path d="M8.67948 11.8542C6.50235 11.8542 4.73535 10.0799 4.73535 7.89387V7.10221C4.73535 6.6664 5.09074 6.31055 5.52378 6.31055C5.95682 6.31055 6.31221 6.66739 6.31221 7.10221V7.89387C6.31221 9.20831 7.36942 10.2699 8.67849 10.2699L8.67948 11.8542Z" fill="#253D4E"/>
<path d="M17.3514 14.0867C16.8835 13.0771 16.1867 12.6073 15.5894 12.3974L15.7785 14.2566C15.7785 16.0059 14.3649 17.4253 12.6228 17.4253H4.73853C3.02629 17.4353 1.62265 16.0559 1.58283 14.3366L2.36927 6.34C2.36927 5.90018 2.72764 5.54034 3.1557 5.54034H14.2256C14.6735 5.58032 15.0219 5.96016 14.9921 6.41996L15.2111 8.62902C15.8283 8.56905 16.3858 8.72898 16.8238 8.92889L16.565 6.34C16.565 5.02056 15.5097 3.96101 14.2056 3.96101H3.1557C1.88148 3.95101 0.826257 4.97058 0.796392 6.26003L0 14.2566C0 16.8755 2.12039 19.0046 4.73853 19.0046H12.6726C15.2907 18.9746 17.3912 16.8155 17.3613 14.1767L17.3514 14.0867Z" fill="#253D4E"/>
<path d="M18.2184 10.7748C17.2797 9.86315 15.9925 9.29739 14.5659 9.29739H12.2932L13.4291 8.16587C13.7536 7.83101 13.7536 7.28824 13.4291 6.95339C13.2549 6.78046 13.0229 6.6875 12.791 6.6875C12.571 6.6875 12.3619 6.76847 12.1877 6.9304L9.55565 9.55128C9.47402 9.63225 9.41628 9.72421 9.38143 9.81717C9.36949 9.84016 9.35854 9.87514 9.34659 9.89813C9.3237 9.9671 9.31175 10.0481 9.2998 10.117V10.209C9.2998 10.301 9.3227 10.3939 9.35754 10.4859V10.5089C9.40433 10.6008 9.46207 10.6938 9.53175 10.7628C9.5437 10.7748 9.5437 10.7858 9.55465 10.7858L12.1867 13.4176L12.2096 13.4406C12.3719 13.6026 12.5919 13.6835 12.8129 13.6835C13.0448 13.6835 13.2768 13.5916 13.451 13.4176C13.7875 13.0708 13.7755 12.517 13.4281 12.1822L12.2922 11.0506H14.565C15.5037 11.0506 16.3509 11.4205 16.977 12.0092C17.3712 12.3791 17.6838 12.8409 17.87 13.3597C18.0093 13.7295 18.079 14.1333 18.079 14.5492V18.0477C18.079 18.5215 18.4732 18.9133 18.96 18.9133C19.4359 18.9133 19.8301 18.5205 19.8301 18.0477V14.5492C19.8301 13.6375 19.5981 12.7939 19.192 12.0442C18.9371 11.5704 18.6126 11.1436 18.2184 10.7738V10.7748Z" fill="#253D4E"/>
</svg>
