<svg width="40" height="40" viewBox="0 0 40 40" fill="none" xmlns="http://www.w3.org/2000/svg">
<g clip-path="url(#clip0_1_12773)">
<path d="M38.8826 18.9791C39.8963 17.9915 40.254 16.5421 39.8165 15.1971C39.3798 13.8515 38.2385 12.8892 36.8379 12.6857L28.1905 11.4292C27.7515 11.3652 27.3722 11.0896 27.176 10.6921L23.3087 2.85557C22.6824 1.58721 21.4146 0.799316 19.9999 0.799316C18.5852 0.799316 17.3174 1.58721 16.6912 2.85557C16.6912 2.85564 12.8239 10.6921 12.8239 10.6921C12.6277 11.0897 12.2484 11.3653 11.8101 11.4292L3.16212 12.6856C1.7615 12.8892 0.620167 13.8515 0.183683 15.1963C-0.254052 16.5421 0.103683 17.9916 1.11704 18.9788L7.3747 25.0792C7.69212 25.3885 7.83696 25.834 7.7622 26.2705L6.2847 34.8841C6.04595 36.2786 6.60837 37.6613 7.75251 38.4924C8.89689 39.3238 10.3859 39.4316 11.6388 38.7735L19.3733 34.707C19.7656 34.5008 20.2342 34.5009 20.6261 34.7067L28.3613 38.7735C29.6141 39.4317 31.1031 39.3238 32.2475 38.4924C33.3916 37.6612 33.9541 36.2786 33.7153 34.8841L32.2378 26.2709C32.163 25.834 32.3078 25.3885 32.6254 25.0789L38.8826 18.9791ZM29.9276 26.6664L31.4053 35.2803C31.4937 35.7963 31.2936 36.2885 30.87 36.5962C30.6349 36.767 30.3624 36.8573 30.082 36.8573C29.9592 36.8573 29.7237 36.8417 29.4513 36.6986L21.7168 32.6322C21.1888 32.3549 20.5955 32.2086 20.0001 32.2086C19.4044 32.2086 18.8106 32.3551 18.2833 32.6322L10.5481 36.6991C10.0167 36.9782 9.48501 36.8542 9.13025 36.5963C8.7065 36.2885 8.50642 35.7963 8.59486 35.2796L10.0723 26.6668C10.2773 25.4688 9.88025 24.2482 9.01048 23.4006L2.75314 17.3006C2.37767 16.9348 2.25048 16.4194 2.41251 15.9214C2.57446 15.4225 2.98056 15.0805 3.49931 15.0051L12.147 13.7486C13.3499 13.5731 14.3881 12.8185 14.9256 11.7295L18.7928 3.89322C19.0247 3.42354 19.476 3.14314 20 3.14314C20.524 3.14314 20.9753 3.42354 21.2072 3.89322L25.0743 11.7294C25.612 12.8185 26.6504 13.5732 27.8522 13.7485C29.7693 14.0269 33.4411 14.56 36.5006 15.0051C37.0195 15.0805 37.4256 15.4228 37.5873 15.9206C37.7496 16.4196 37.6223 16.9349 37.2471 17.3004L30.9894 23.4007C30.1196 24.2482 29.7227 25.4692 29.9276 26.6664Z" fill="#F6B120"/>
</g>
<defs>
<clipPath id="clip0_1_12773">
<rect width="40" height="40" fill="white"/>
</clipPath>
</defs>
</svg>
