<svg width="24" height="24" viewBox="0 0 24 24" fill="none" xmlns="http://www.w3.org/2000/svg">
<path fill-rule="evenodd" clip-rule="evenodd" d="M11.9975 8.30456C14.0442 8.30458 15.7033 9.96407 15.7036 12.0106C15.7036 14.0574 14.0443 15.7167 11.9975 15.7167C9.95072 15.7167 8.29146 14.0574 8.29146 12.0106C8.29173 9.96406 9.95089 8.30456 11.9975 8.30456ZM11.9975 10.0345C10.9061 10.0345 10.0217 10.9192 10.0214 12.0106C10.0214 13.1023 10.9059 13.9867 11.9975 13.9867C13.0891 13.9867 13.9736 13.1023 13.9736 12.0106C13.9733 10.9192 13.089 10.0346 11.9975 10.0345Z" fill="#656565"/>
<path fill-rule="evenodd" clip-rule="evenodd" d="M10.4811 5.00987C14.278 4.33606 18.456 5.74517 22.1132 10.8284C22.6099 11.5187 22.6396 12.4741 22.1168 13.1893C20.3914 15.5488 17.4848 18.2206 13.8843 18.9535C10.1808 19.7071 6.0057 18.3615 1.94095 13.205C1.41472 12.5367 1.33275 11.5672 1.85288 10.8223C3.63704 8.26865 6.78099 5.66665 10.4811 5.00987ZM20.7102 11.8381C17.3712 7.19722 13.8159 6.17531 10.7839 6.71331C7.65514 7.26858 4.87219 9.52196 3.27161 11.8128C3.22047 11.886 3.20849 12.0193 3.29936 12.1349C7.07023 16.9186 10.6337 17.8497 13.5393 17.2585C16.548 16.646 19.1234 14.3506 20.7198 12.1675C20.7801 12.0846 20.7907 11.9501 20.7102 11.8381Z" fill="#656565"/>
</svg>
