<svg width="20" height="20" viewBox="0 0 20 20" fill="none" xmlns="http://www.w3.org/2000/svg">
<rect width="20" height="20" rx="10" fill="#656565" fill-opacity="0.4"/>
<path d="M12.2266 7.0498C12.4262 6.85011 12.7505 6.85012 12.9502 7.0498C13.1497 7.24941 13.1495 7.57279 12.9502 7.77246L10.7227 9.99902L12.9502 12.2266C13.1499 12.4262 13.1499 12.7505 12.9502 12.9502C12.7506 13.1496 12.4272 13.1495 12.2275 12.9502L10 10.7227L7.77344 12.9502C7.57375 13.1499 7.24951 13.1499 7.0498 12.9502C6.85034 12.7506 6.85048 12.4272 7.0498 12.2275L9.27637 10L7.0498 7.77344C6.8501 7.57375 6.8501 7.24949 7.0498 7.0498C7.2494 6.85034 7.57277 6.85049 7.77246 7.0498L9.99902 9.27637L12.2266 7.0498Z" fill="white" stroke="white" stroke-width="0.2"/>
</svg>
