<svg width="15" height="17" viewBox="0 0 15 17" fill="none" xmlns="http://www.w3.org/2000/svg">
<path fill-rule="evenodd" clip-rule="evenodd" d="M7.50016 6.66667C8.88091 6.66667 10.0002 5.54738 10.0002 4.16667C10.0002 2.78596 8.88091 1.66667 7.50016 1.66667C6.11941 1.66667 5.00016 2.78596 5.00016 4.16667C5.00016 5.54738 6.11941 6.66667 7.50016 6.66667ZM7.50016 8.33334C9.80133 8.33334 11.6668 6.46785 11.6668 4.16667C11.6668 1.86548 9.80133 0 7.50016 0C5.19898 0 3.3335 1.86548 3.3335 4.16667C3.3335 6.46785 5.19898 8.33334 7.50016 8.33334Z" fill="#656565"/>
<path fill-rule="evenodd" clip-rule="evenodd" d="M5 11.6667C3.15905 11.6667 1.66667 13.1591 1.66667 15V15.8333C1.66667 16.2936 1.29357 16.6667 0.833333 16.6667C0.3731 16.6667 0 16.2936 0 15.8333V15C0 12.2386 2.23857 10 5 10H10C12.7614 10 15 12.2386 15 15V15.8333C15 16.2936 14.6269 16.6667 14.1667 16.6667C13.7064 16.6667 13.3333 16.2936 13.3333 15.8333V15C13.3333 13.1591 11.8409 11.6667 10 11.6667H5Z" fill="#656565"/>
</svg>
