<svg width="16" height="21" viewBox="0 0 16 21" fill="none" xmlns="http://www.w3.org/2000/svg">
<path d="M7.749 9.501C5.13 9.501 3 7.371 3 4.752C3 2.133 5.13 0 7.749 0C10.368 0 12.498 2.13 12.498 4.749C12.498 7.368 10.368 9.501 7.749 9.501ZM7.749 1.5C5.958 1.5 4.5 2.958 4.5 4.749C4.5 6.54 5.958 8.001 7.749 8.001C9.54 8.001 10.998 6.543 10.998 4.752C10.998 2.961 9.54 1.5 7.749 1.5Z" fill="#656565"/>
<path d="M7.749 20.502C5.751 20.502 3.861 20.052 2.427 19.233C0.861 18.339 0 17.103 0 15.753C0 14.403 0.861 13.167 2.427 12.273C3.861 11.451 5.751 11.001 7.749 11.001C9.747 11.001 11.637 11.451 13.071 12.27C14.637 13.164 15.498 14.4 15.498 15.75C15.498 17.1 14.637 18.336 13.071 19.23C11.637 20.049 9.747 20.502 7.749 20.502ZM7.749 12.501C6.009 12.501 4.383 12.882 3.171 13.575C2.547 13.932 1.5 14.688 1.5 15.753C1.5 16.815 2.547 17.574 3.171 17.931C4.383 18.621 6.009 19.002 7.749 19.002C9.489 19.002 11.115 18.621 12.327 17.928C12.951 17.571 13.998 16.815 13.998 15.75C13.998 14.688 12.951 13.929 12.327 13.572C11.115 12.882 9.489 12.501 7.749 12.501Z" fill="#656565"/>
</svg>
