<svg width="21" height="12" viewBox="0 0 21 12" fill="none" xmlns="http://www.w3.org/2000/svg">
<path fill-rule="evenodd" clip-rule="evenodd" d="M4.62109 3.49635e-05C2.07376 9.83894e-05 0.000976562 2.073 0.000976562 4.62015V6.60062C-0.0501747 9.0835 2.13802 11.2711 4.62109 11.2198H5.26465C6.54642 11.2197 7.75519 10.7445 8.58496 9.91507C8.59073 9.90931 8.59678 9.90331 8.60254 9.8975C8.98533 9.50997 9.30581 9.02073 9.53711 8.47855C9.81512 8.57553 10.0697 8.62624 10.2979 8.62894C10.8193 8.63503 11.32 8.43689 11.6719 8.08597C11.8047 7.95347 11.9502 7.87113 12.0508 7.87113C12.1527 7.87134 12.2982 7.9538 12.4307 8.08597C12.7729 8.42727 13.2603 8.62526 13.7676 8.62894C14.2772 8.63262 14.7719 8.43233 15.125 8.08011C15.2386 7.96682 15.3756 7.90465 15.5107 7.90433C15.586 7.90419 15.6569 7.91636 15.7207 7.94144C16.3845 8.20316 17.1045 8.23857 17.7471 8.04007C18.4712 7.81627 19.153 7.40166 19.6914 6.8682C20.0286 6.53103 20.206 6.08986 20.2061 5.61039C20.2061 5.12809 20.0186 4.67577 19.6777 4.33793C18.8008 3.46903 17.5915 2.97074 16.3604 2.97074L9.59863 2.95707C8.94781 1.15518 7.20168 -0.00734831 5.26465 3.49635e-05H4.62109ZM5.26465 1.31839C6.80395 1.31138 8.11569 2.29607 8.47754 3.77933C8.55234 4.06988 8.81426 4.27276 9.11426 4.27347L16.3594 4.2891C17.2471 4.28915 18.118 4.64814 18.75 5.27445C18.8393 5.36297 18.8887 5.48233 18.8887 5.61039C18.8887 5.73846 18.8379 5.85755 18.75 5.94632C18.3618 6.33103 17.8805 6.6199 17.3584 6.78128C17.0008 6.89177 16.5905 6.86822 16.2041 6.71586C15.985 6.62951 15.7509 6.58655 15.5088 6.58695C15.0231 6.58776 14.5562 6.78657 14.1943 7.1475C13.9902 7.36319 13.5625 7.35894 13.3613 7.15238C12.974 6.76612 12.5085 6.55381 12.0508 6.55375C11.5943 6.55372 11.1289 6.76665 10.7412 7.15336C10.6431 7.25108 10.4753 7.31337 10.3135 7.31156C10.2455 7.31077 9.98267 7.28565 9.46191 7.00296C9.28361 6.90626 9.07072 6.89756 8.88477 6.97855C8.69877 7.05965 8.56034 7.22158 8.50977 7.418C8.35523 8.01826 8.0472 8.58478 7.66504 8.97171C7.07872 9.56445 6.20597 9.90194 5.26465 9.90238H4.62109C2.84627 9.93896 1.2828 8.37538 1.31934 6.60062V4.62015C1.31941 2.79953 2.80031 1.31841 4.62109 1.31839H5.26465ZM4.58105 4.18949C4.54865 3.31637 3.29575 3.31702 3.26367 4.18949V6.98441C3.2592 7.56823 3.98575 7.86197 4.38867 7.45023C4.50777 7.33102 4.58105 7.1662 4.58105 6.98441V4.18949Z" fill="#656565"/>
</svg>
